 http://img28.imageshack.us/img28/8601/paranormalq.jpg


Verenigde Staten
Horror / Mystery
85 minuten

geregisseerd door Henry Joost en Ariel Schulman
met Chloe Csengery, Jessica Tyler Brown en Katie Featherston

Achttien jaar voor de gebeurtenissen van deel 1 en 2 volgen we Katie en haar zus Kristi tijdens een logeerpartij bij hun grootmoeder. Hun dagelijkse bezigheden worden vastgelegd op film als herinnering voor de ouders en ook Katie en Kristi mogen van de camera gebruik maken. Katie en Kristi geraken in bizarre situaties en er wordt een pact wordt gesloten met de duivel omtrent Hunter...



Nl-ENG subs





Screenshots:
 
http://postimage.org/image/6caouwxbn/ 
http://postimage.org/image/733f0ozoz/ 
http://postimage.org/image/nqzz0b0s3/ 
http://postimage.org/image/gp21e3x6b/




INFO;

Format                                   : Matroska
Format version                           : Version 2
File size                                : 2.18 GiB
Duration                                 : 1h 33mn
Overall bit rate                         : 3 315 Kbps
Encoded date                             : UTC 2012-01-25 14:10:42
Writing application                      : mkvmerge v5.2.1 ('A Far Off Place') built on Jan  2 2012 23:21:10
Writing library                          : libebml v1.2.3 + libmatroska v1.3.0

Video
ID                                       : 1
Format                                   : MPEG-4 Visual
Format profile                           : Advanced Simple@L5
Format settings, BVOP                    : Yes
Format settings, QPel                    : No
Format settings, GMC                     : No warppoints
Format settings, Matrix                  : Custom
Codec ID                                 : XVID
Codec ID/Hint                            : XviD
Duration                                 : 1h 33mn
Bit rate                                 : 2 865 Kbps
Width                                    : 1 280 pixels
Height                                   : 720 pixels
Display aspect ratio                     : 16:9
Frame rate                               : 23.976 fps
Color space                              : YUV
Chroma subsampling                       : 4:2:0
Bit depth                                : 8 bits
Scan type                                : Progressive
Compression mode                         : Lossy
Bits/(Pixel*Frame)                       : 0.130
Stream size                              : 1.88 GiB (86%)
Writing library                          : XviD 1.2.1 (UTC 2008-12-04)
Language                                 : English
Default                                  : Yes
Forced                                   : No

Audio
ID                                       : 2
Format                                   : AC-3
Format/Info                              : Audio Coding 3
Mode extension                           : CM (complete main)
Muxing mode                              : Header stripping
Codec ID                                 : A_AC3
Duration                                 : 1h 33mn
Bit rate mode                            : Constant
Bit rate                                 : 384 Kbps
Channel(s)                               : 6 channels
Channel positions                        : Front: L C R, Side: L R, LFE
Sampling rate                            : 48.0 KHz
Bit depth                                : 16 bits
Compression mode                         : Lossy
Stream size                              : 258 MiB (12%)
Language                                 : English
Default                                  : Yes
Forced                                   : No

Text #1
ID                                       : 3
Format                                   : UTF-8
Codec ID                                 : S_TEXT/UTF8
Codec ID/Info                            : UTF-8 Plain Text
Language                                 : English
Default                                  : Yes
Forced                                   : No

Text #2
ID                                       : 4
Format                                   : UTF-8
Codec ID                                 : S_TEXT/UTF8
Codec ID/Info                            : UTF-8 Plain Text
Language                                 : Dutch
Default                                  : No
Forced                                   : No

 
http://www.imdb.com/title/tt1778304/ 
http://www.moviemeter.nl/film/79044


Deze film wordt u aangeboden door het DutchReleaseTeam.
Voor de reviews van de nieuwste films, muziek, series, games etc
ga dan eens naar http://www.hetmultimediacafe.be/